<?xml version="1.0" encoding="UTF-8"?>
<svg width="69px" height="71px" viewBox="0 0 69 71" version="1.1" xmlns="http://www.w3.org/2000/svg" xmlns:xlink="http://www.w3.org/1999/xlink">
    <!-- Generator: Sketch 63.1 (92452) - https://sketch.com -->
    <title>Group 2</title>
    <desc>Created with Sketch.</desc>
    <defs>
        <path d="M25.8803357,6.43466632 C25.8803357,2.88106341 22.9994133,0 19.445613,0 C15.4765301,0 10.4038056,0 6.43472272,0 C2.88092241,0 -3.36294392e-14,2.88106341 -3.36294392e-14,6.43466632 C-3.36294392e-14,13.5279138 -3.36294392e-14,12.0327894 -3.36294392e-14,19.0341372 C-3.36294392e-14,20.6806324 0.654069352,22.2597044 1.81830998,23.423945 C2.9825506,24.5881856 4.56162263,25.242255 6.20811779,25.242255 C10.284384,25.242255 15.5959517,25.242255 19.6722179,25.242255 C21.318713,25.242255 22.8977851,24.5881856 24.0620257,23.423945 C25.2262663,22.2597044 25.8803357,20.6806324 25.8803357,19.0341372 C25.8803357,12.0327894 25.8803357,13.5279138 25.8803357,6.43466632 Z" id="path-1"></path>
    </defs>
    <g id="Page-1" stroke="none" stroke-width="1" fill="none" fill-rule="evenodd">
        <g id="darujkrev---Map" transform="translate(-102.000000, -203.000000)">
            <g id="Group-2" transform="translate(102.800000, 203.735589)">
                <rect id="Rectangle" fill="#F5F6F9" x="1.63424829e-13" y="1.42108547e-14" width="67.5036145" height="69.6" rx="9.6"></rect>
                <g id="Group-12-Copy-2" transform="translate(17.751807, 15.300000)">
                    <path d="M8.16751024,2.64160199 C8.70390816,2.4626975 9.21011003,2.20364886 9.66895112,1.87329085 C10.1208821,1.54798129 10.6959954,1.13369278 11.1904911,0.777776982 C11.8927938,0.271985298 12.7362637,-4.04177005e-15 13.6016629,-4.04177005e-15 L17.9511559,-4.04177005e-15 C18.816555,-4.04177005e-15 19.660025,0.271985298 20.3623276,0.777776982 C20.8568234,1.13369278 21.4319366,1.54798129 21.8838676,1.87329085 C22.3427403,2.20364886 22.8489421,2.4626975 23.3853401,2.64128646 C24.0410707,2.85994749 24.8870018,3.14202969 25.7852159,3.44146594 C29.2295847,4.58967302 31.5528188,7.81279345 31.5528188,11.4435763 L31.5528188,29.8174137 C31.5528188,32.9668268 29.7734291,35.8459268 26.9565196,37.2543815 C25.8290428,37.8181042 24.5861772,38.1115139 23.3260208,38.1115139 C19.6961214,38.1115139 11.8566974,38.1115139 8.22679799,38.1115139 C6.96664151,38.1115139 5.72377598,37.8181042 4.59664619,37.2545393 C1.77938966,35.8459268 5.65847807e-14,32.9668268 5.65847807e-14,29.8174137 L5.65847807e-14,11.4435763 C5.65847807e-14,7.81279345 2.32323404,4.58967302 5.76760285,3.44146594 L8.16751024,2.64160199 Z M14.9212018,1.89316913 C15.051294,1.89316913 15.1658939,1.80766099 15.2031578,1.68302735 C15.2716274,1.4350222 15.5039823,1.26211275 15.7764094,1.26211275 C16.0488364,1.26211275 16.2811914,1.4350222 16.3694762,1.67703232 C16.4041212,1.79314669 16.5107066,1.87234426 16.631617,1.87234426 C17.0840844,1.89316913 18.0639887,1.89316913 18.0639887,1.89316913 C18.2104254,1.89316913 18.350867,1.95122631 18.4544233,2.05503509 C18.5579797,2.15852833 18.6161631,2.29893837 18.6161631,2.44534345 C18.6161631,2.59174853 18.5579797,2.73215858 18.4544233,2.83565182 C18.350867,2.93946059 18.2104254,2.99751778 18.0639887,2.99751778 C16.9778145,2.99751778 14.5750042,2.99751778 13.48883,2.99751778 C13.3423934,2.99751778 13.2019518,2.93946059 13.0983954,2.83565182 C12.9948391,2.73215858 12.9366557,2.59174853 12.9366557,2.44534345 C12.9366557,2.29893837 12.9948391,2.15852833 13.0983954,2.05503509 C13.2019518,1.95122631 13.3423934,1.89316913 13.48883,1.89316913 C13.48883,1.89316913 14.4687344,1.89316913 14.9212018,1.89316913 Z" id="Fill-1" fill="#DBDDE2"></path>
                    <g id="Path-17" transform="translate(2.836242, 10.020481)">
                        <mask id="mask-2" fill="white">
                            <use xlink:href="#path-1"></use>
                        </mask>
                        <use id="Mask" fill="#FF001F" xlink:href="#path-1"></use>
                        <path d="M13.5018194,6.61479793 C13.3125144,6.43443136 13.0149699,6.43443136 12.8256649,6.61476531 C11.7556661,7.65468672 8.51327612,11.0362418 8.51327612,13.8290366 C8.51327612,16.3956962 10.5970662,18.4795189 13.1637585,18.4795189 C15.7304507,18.4795189 17.8142408,16.3956962 17.8142408,13.8290366 C17.8142408,11.0362418 14.5718508,7.65468672 13.5018194,6.61479793 Z" id="Fill-3" fill="#D01D1D" mask="url(#mask-2)"></path>
                    </g>
                </g>
            </g>
        </g>
    </g>
</svg>