<?xml version="1.0" encoding="UTF-8"?>
<svg width="15px" height="14px" viewBox="0 0 15 14" version="1.1" xmlns="http://www.w3.org/2000/svg" xmlns:xlink="http://www.w3.org/1999/xlink">
    <!-- Generator: Sketch 63.1 (92452) - https://sketch.com -->
    <title>Group 3</title>
    <desc>Created with Sketch.</desc>
    <g id="Page-1" stroke="none" stroke-width="1" fill="none" fill-rule="evenodd" stroke-linecap="round" stroke-linejoin="round">
        <g id="darujkrev---Map" transform="translate(-243.000000, -294.000000)" stroke="#9BA1B2" stroke-width="1.6">
            <g id="Group-3" transform="translate(244.400000, 294.735589)">
                <path d="M2.26828,5.34678 C1.81996,5.7951 1.4723,6.14276 1.09084,6.52422 C-0.21226,7.82732 -0.21226,9.94006 1.09084,11.24318 C1.09086,11.2432 1.09088,11.24322 1.0909,11.24324 C2.39402,12.54634 4.50676,12.54634 5.80986,11.24324 C6.63964,10.41346 6.15752,10.89556 6.9873,10.0658 C7.58898,9.4641 7.91286,8.6898 7.9589,7.9023 C8.01258,6.98426 7.68872,6.04826 6.9873,5.34678 C6.98728,5.34678 6.98726,5.34678 6.98724,5.34678" id="Stroke-1"></path>
                <path d="M10.0658,6.9873 C10.51412,6.53898 10.86178,6.19132 11.24324,5.80986 C12.54634,4.50676 12.54634,2.39402 11.24324,1.09092 C11.24322,1.09088 11.2432,1.09086 11.24316,1.09084 C9.94006,-0.21226 7.82732,-0.21226 6.52422,1.09084 C5.69444,1.92062 6.17656,1.43852 5.34678,2.26828 C4.7451,2.86998 4.42122,3.64428 4.37518,4.43178 C4.3215,5.34982 4.64536,6.28582 5.34678,6.9873 C5.3468,6.9873 5.34682,6.9873 5.34684,6.9873" id="Stroke-2"></path>
            </g>
        </g>
    </g>
</svg>